<?xml version="1.0" encoding="iso-8859-1"?>
<!-- Generator: Adobe Illustrator 19.1.0, SVG Export Plug-In . SVG Version: 6.00 Build 0)  -->
<svg version="1.1" id="Capa_1" xmlns="http://www.w3.org/2000/svg" xmlns:xlink="http://www.w3.org/1999/xlink" x="0px" y="0px"
	 viewBox="0 0 46.777 46.777" style="enable-background:new 0 0 46.777 46.777;" xml:space="preserve">
<path d="M26.888,30.348l5.095-4.635l8.428-7.635l-8.428-7.651l-8.587-7.793l-8.587,7.793l-8.428,7.651
	l8.428,7.635l5.079,4.635l2.762-2.476c0.429-0.397,1.079-0.381,1.492,0L26.888,30.348z M4.016,17.19l9.285-8.428l9.333-8.46V0.286
	L22.65,0.27h0.016l0.016-0.016l0,0l0.016-0.016l0,0l0.016-0.016h0.016l0.016-0.016l0,0l0.016-0.016l0,0l0.016-0.016h0.016h0.016
	V0.159h0.016V0.143h0.032l0,0l0.016-0.016l0,0l0.016-0.016c0.127-0.048,0.27-0.095,0.397-0.111h0.016h0.016l0,0h0.016h0.016h0.016
	l0,0h0.016h0.016h0.016h0.016h0.016l0,0h0.016h0.016h0.016l0,0c0.143,0.016,0.27,0.063,0.397,0.111l0.016,0.016l0,0l0.016,0.016
	h0.016h0.016v0.016h0.016l0.016,0.016h0.016l0,0l0.016,0.016l0,0l0.016,0.016h0.016l0.016,0.016l0,0l0.016,0.016l0,0l0.016,0.016
	h0.016l0.016,0.016l0,0l0.016,0.016v0.016l9.349,8.46l9.269,8.428c0.27,0.206,0.429,0.524,0.429,0.889V45.65
	c0,0.619-0.492,1.127-1.111,1.127l0,0H23.396H4.715l0,0H4.683l0,0l-0.032-0.016l0,0H4.619l0,0H4.604l0,0H4.572l0,0H4.54l0,0
	l-0.032-0.016l0,0H4.492l0,0H4.461l0,0l-0.032-0.016l0,0H4.397l0,0l-0.016-0.016l0,0H4.35l0,0l-0.016-0.016
	c-0.429-0.159-0.746-0.571-0.746-1.048V18.079C3.588,17.714,3.762,17.396,4.016,17.19L4.016,17.19z M5.826,20.603v22.523
	l7.476-6.778l4.936-4.492l-4.936-4.476L5.826,20.603z M40.951,43.126V20.603l-7.46,6.778l-4.952,4.476l4.952,4.492L40.951,43.126z
	 M31.983,37.999l-8.587-7.793l-8.587,7.793l-7.206,6.524h15.793h15.777L31.983,37.999z" fill="#fff"/>
<g>
</g>
<g>
</g>
<g>
</g>
<g>
</g>
<g>
</g>
<g>
</g>
<g>
</g>
<g>
</g>
<g>
</g>
<g>
</g>
<g>
</g>
<g>
</g>
<g>
</g>
<g>
</g>
<g>
</g>
</svg>
